<svg id="Capa_1" enable-background="new 0 0 512 512" height="512" viewBox="0 0 512 512" width="512" xmlns="http://www.w3.org/2000/svg"><g><path d="m362.8 289.296c-24.086 24.086-64.912 41.177-64.912 41.177v142.403h-83.775v-142.404s-40.827-17.091-64.912-41.177c0 0-7.335-70.856 26.177-127.393 0 0 9.426-12.568 38.735-12.568 0 0-10.467 52.498 0 84.888 0 0 20.944 10.199 41.887 10.199s41.887-10.199 41.887-10.199c10.467-32.389 0-84.888 0-84.888 29.309 0 38.735 12.568 38.735 12.568 33.513 56.537 26.178 127.394 26.178 127.394z" fill="#f6e266"/><path d="m236.736 311.105v161.771h-22.623v-142.404s-40.827-17.091-64.912-41.177c0 0-7.335-70.856 26.177-127.393 0 0 9.426-12.568 38.735-12.568 0 0-44.453 3.791-39.93 125.56-.001 0 28.443 29.504 62.553 36.211z" fill="#f1d333"/><path d="m505.896 217.75c-2.792-8.715-10.477-14.948-19.552-16.122-11.486-1.483-22.973-2.627-34.449-3.41-9.045-.628-16.864-6.397-20.325-14.783-.031-.093-.072-.185-.113-.278-3.472-8.375-2.04-17.976 3.925-24.817 7.551-8.674 14.876-17.595 21.942-26.774 5.594-7.242 6.614-17.09 2.421-25.229-12.269-23.786-30.297-41.814-54.083-54.083-8.138-4.193-17.987-3.173-25.229 2.421-9.179 7.067-18.1 14.391-26.774 21.942-6.84 5.965-16.441 7.397-24.817 3.925-.093-.041-.185-.082-.278-.113-8.385-3.461-14.154-11.28-14.783-20.325-.783-11.476-1.926-22.962-3.41-34.449-1.174-9.076-7.407-16.761-16.122-19.552-25.496-8.138-51.003-8.138-76.5 0-8.715 2.792-14.948 10.477-16.122 19.552-1.483 11.486-2.627 22.973-3.41 34.449-.628 9.045-6.397 16.864-14.783 20.325-.093.031-.185.072-.278.113-8.375 3.472-17.976 2.04-24.817-3.925-8.674-7.551-17.595-14.876-26.774-21.942-7.242-5.594-17.09-6.614-25.229-2.421-23.786 12.269-41.814 30.297-54.083 54.083-4.193 8.138-3.173 17.987 2.421 25.229 7.067 9.179 14.391 18.1 21.942 26.774 5.965 6.84 7.397 16.441 3.925 24.817-.041.093-.082.185-.113.278-3.461 8.386-11.28 14.154-20.325 14.783-11.476.783-22.962 1.926-34.449 3.41-9.076 1.174-16.761 7.407-19.552 16.122-8.138 25.496-8.138 51.003 0 76.5 2.792 8.715 10.477 14.948 19.552 16.122 11.486 1.483 22.973 2.627 34.449 3.41 9.045.628 16.864 6.397 20.325 14.783.031.093.072.185.113.278 3.472 8.375 2.04 17.976-3.925 24.817-7.551 8.674-14.876 17.595-21.942 26.774-5.594 7.242-6.614 17.09-2.421 25.229 12.269 23.786 30.297 41.814 54.083 54.083 8.138 4.193 17.987 3.173 25.229-2.421 9.179-7.067 18.1-14.391 26.774-21.942 6.84-5.965 16.441-7.397 24.817-3.925.093.041.185.082.278.113 8.386 3.461 14.154 11.28 14.783 20.325.783 11.476 1.926 22.962 3.41 34.449 1.174 9.076 7.407 16.761 16.122 19.552 25.496 8.138 51.003 8.138 76.5 0 8.715-2.792 14.948-10.477 16.122-19.552 1.483-11.486 2.627-22.973 3.41-34.449.628-9.045 6.397-16.864 14.783-20.325.093-.031.185-.072.278-.113 8.375-3.472 17.976-2.04 24.817 3.925 8.674 7.551 17.595 14.876 26.774 21.942 7.242 5.594 17.09 6.614 25.229 2.421 23.786-12.269 41.814-30.297 54.083-54.083 4.193-8.138 3.173-17.987-2.421-25.229-7.067-9.179-14.391-18.1-21.942-26.774-5.965-6.84-7.397-16.441-3.925-24.817.041-.093.082-.185.113-.278 3.461-8.385 11.28-14.154 20.325-14.783 11.476-.783 22.962-1.926 34.449-3.41 9.076-1.174 16.761-7.407 19.552-16.122 8.139-25.497 8.139-51.003 0-76.5zm-249.896 198.724c-88.628 0-160.474-71.846-160.474-160.474s71.846-160.474 160.474-160.474 160.474 71.846 160.474 160.474-71.846 160.474-160.474 160.474z" fill="#b9c1cb"/><path d="m80.59 411.955c-4.193-8.479-3.173-18.739 2.421-26.29 7.067-9.56 14.392-18.863 21.943-27.898 5.965-7.129 7.397-17.132 3.925-25.858-.041-.103-.082-.196-.113-.299-3.461-8.736-11.281-14.742-20.326-15.401-11.476-.814-22.963-2.009-34.45-3.554-9.076-1.226-16.761-7.716-19.553-16.802-8.138-26.569-8.138-53.148 0-79.716 2.792-9.086 10.477-15.576 19.553-16.802 11.487-1.545 22.973-2.74 34.45-3.554 9.045-.659 16.864-6.665 20.326-15.401.031-.103.072-.196.113-.299 3.472-8.726 2.04-18.729-3.925-25.858-7.551-9.035-14.876-18.337-21.943-27.897-5.594-7.551-6.614-17.812-2.421-26.29 10.23-20.666 24.467-37.169 42.701-49.49-5.573-1.545-11.631-1.03-16.957 1.71-23.787 12.27-41.805 30.288-54.075 54.075-4.193 8.139-3.173 17.987 2.421 25.229 7.067 9.179 14.392 18.1 21.933 26.775 5.965 6.84 7.397 16.442 3.925 24.817-.041.093-.082.185-.113.278-3.461 8.386-11.27 14.155-20.315 14.783-11.476.783-22.963 1.926-34.45 3.41-9.076 1.174-16.761 7.407-19.553 16.122-8.138 25.497-8.138 51.005 0 76.502 2.792 8.715 10.477 14.948 19.553 16.122 11.487 1.483 22.973 2.627 34.45 3.41 9.045.628 16.854 6.398 20.315 14.783.031.093.072.185.113.278 3.472 8.375 2.04 17.977-3.925 24.817-7.541 8.674-14.866 17.596-21.933 26.775-5.594 7.242-6.614 17.091-2.421 25.229 12.27 23.787 30.288 41.805 54.075 54.075 5.326 2.74 11.384 3.255 16.957 1.71-18.234-12.322-32.471-28.826-42.701-49.491zm149.367 84.084c-1.483-11.971-2.627-23.942-3.41-35.902-.628-9.426-6.397-17.575-14.783-21.181-.093-.031-.185-.072-.278-.113-5.996-2.596-12.62-2.565-18.409-.062 2.957 3.678 4.801 8.211 5.141 13.104.783 11.476 1.927 22.963 3.41 34.45 1.174 9.076 7.407 16.761 16.122 19.553 6.325 2.019 12.661 3.544 18.986 4.564-3.657-3.812-6.089-8.86-6.779-14.413zm-12.208-489.938c-8.715 2.792-14.948 10.477-16.122 19.553-1.483 11.487-2.627 22.973-3.41 34.45-.34 4.893-2.184 9.426-5.141 13.104 5.79 2.503 12.414 2.534 18.409-.062.093-.041.185-.082.278-.113 8.386-3.606 14.155-11.754 14.783-21.181.783-11.96 1.927-23.931 3.41-35.902.69-5.553 3.122-10.601 6.779-14.412-6.325 1.019-12.66 2.544-18.986 4.563z" fill="#a0aab7"/></g></svg>